<svg width="45" height="46" viewBox="0 0 45 46" fill="none" xmlns="http://www.w3.org/2000/svg">
<path opacity="0.9" d="M9.41634 8.54317C1.13001 29.1564 5.53284 36.3751 8.77004 37.4078C12.5457 40.2444 22.6718 39.6892 27.2629 39.0571C35.1878 37.9659 39.4547 30.026 40.1445 26.166C43.0366 15.6643 30.4803 7.10257 23.8407 4.13443C15.5496 -0.550583 10.7698 5.1215 9.41634 8.54317Z" fill="#38ACF5"/>
<path d="M30.525 16.1802C30.5061 16.1613 30.5061 16.1613 30.4872 16.1424L28.4451 14.3655C28.1615 14.1009 27.7833 13.9685 27.3673 14.0064C27.0081 14.0442 26.6488 14.1954 26.3841 14.46C26.3652 14.4789 26.3463 14.4978 26.3274 14.5167L24.3231 17.0497C23.7937 17.6168 23.8126 18.4863 24.3609 19.0345C24.3987 19.0723 24.4365 19.1101 24.4744 19.129L25.4954 19.8095C25.4198 20.1687 24.8903 21.1894 23.0184 23.0608C21.1654 24.9133 20.1254 25.4426 19.7851 25.5182L19.1044 24.4974C19.0855 24.4596 19.0477 24.4218 19.0099 24.384C18.4615 23.8358 17.5728 23.8358 17.0245 24.3462L14.5097 26.3499C14.4908 26.3688 14.4719 26.3877 14.453 26.4066C13.8857 26.9737 13.8479 27.9188 14.3584 28.467L16.1358 30.4896C16.1547 30.5085 16.1547 30.5085 16.1736 30.5274C16.514 30.8677 17.0434 31 17.6296 31C18.6695 31 19.8607 30.5841 20.4847 30.3384C21.6948 29.8658 24.0584 28.7128 26.403 26.3688C28.1426 24.6297 29.5418 22.5315 30.3737 20.4522C30.7141 19.5071 31.5082 17.1631 30.525 16.1802ZM25.3063 25.3291C21.8083 28.8262 17.8754 29.7902 17.2136 29.4689L15.4929 27.4841L17.951 25.5371L18.6128 26.5389C18.6317 26.5578 18.6317 26.5767 18.6506 26.5956C18.8775 26.8792 19.1989 27.0304 19.5771 27.0493C19.9364 27.0682 21.052 27.1249 24.0584 24.1194C24.7958 23.3822 27.0648 21.1138 26.9892 19.6394C26.9703 19.2613 26.8001 18.94 26.5354 18.7132C26.5165 18.6943 26.4975 18.6754 26.4786 18.6754L25.5143 17.9949L27.4619 15.5186L29.4283 17.2387C29.7687 17.9003 28.8044 21.8321 25.3063 25.3291Z" fill="white"/>
</svg>
