<svg width="49" height="50" viewBox="0 0 49 50" fill="none" xmlns="http://www.w3.org/2000/svg">
<path opacity="0.9" d="M4.73865 24.8484C14.7997 45.3123 23.2079 47.0434 26.1544 45.3509C30.8263 44.509 37.1776 36.5893 39.7693 32.7346C44.243 26.0809 41.0865 17.3985 38.6261 14.2077C32.6113 4.77134 17.7342 8.17559 11.0475 11.0573C1.95693 13.9769 3.05386 21.4678 4.73865 24.8484Z" fill="#38ACF5"/>
<path d="M34.9565 19.846C34.9565 19.8237 34.9565 19.7792 34.9565 19.757C34.9565 19.7347 34.9565 19.7124 34.9565 19.6902C34.9565 19.6679 34.9348 19.6456 34.9348 19.6011C34.9348 19.5788 34.913 19.5343 34.913 19.5121C34.913 19.4898 34.8913 19.4675 34.8696 19.4453C34.8478 19.423 34.8478 19.3785 34.8261 19.3562V19.334C34.8043 19.3117 34.8043 19.3117 34.7826 19.2894C34.7609 19.2672 34.7391 19.2449 34.7174 19.2226C34.6957 19.2004 34.6739 19.1781 34.6522 19.1781C34.6304 19.1558 34.6087 19.1336 34.587 19.1336C34.5652 19.1113 34.5435 19.1113 34.5217 19.0891C34.5 19.0668 34.4783 19.0668 34.4565 19.0445C34.4348 19.0445 34.3913 19.0223 34.3696 19.0223C34.3478 19.0223 34.3261 19 34.2826 19C34.2609 19 34.2174 19 34.1957 19C34.1739 19 34.1522 19 34.1304 19H15.8261C15.8043 19 15.7826 19 15.7609 19C15.7391 19 15.6957 19 15.6739 19C15.6522 19 15.6304 19.0223 15.587 19.0223C15.5652 19.0223 15.5217 19.0445 15.5 19.0445C15.4783 19.0445 15.4565 19.0668 15.4348 19.0891C15.413 19.1113 15.3913 19.1113 15.3696 19.1336C15.3478 19.1558 15.3261 19.1558 15.3043 19.1781C15.2826 19.2004 15.2609 19.2226 15.2391 19.2226C15.2174 19.2449 15.1957 19.2672 15.1739 19.2894C15.1522 19.3117 15.1522 19.3117 15.1304 19.334V19.3562C15.1087 19.3785 15.087 19.423 15.087 19.4453C15.0652 19.4675 15.0652 19.4898 15.0435 19.5121C15.0217 19.5343 15.0217 19.5566 15.0217 19.6011C15.0217 19.6234 15 19.6456 15 19.6902C15 19.7124 15 19.7347 15 19.757C15 19.7792 15 19.8237 15 19.846V19.8683V30.1095C15 30.5993 15.3913 31 15.8696 31H34.1304C34.6087 31 35 30.5993 35 30.1095L34.9565 19.846C34.9565 19.846 34.9565 19.8683 34.9565 19.846ZM31.4565 20.7588L24.9565 25.7013L18.4565 20.7588H31.4565ZM16.6957 29.2189V21.6494L24.4348 27.5269C24.587 27.6382 24.7609 27.705 24.9565 27.705C25.1522 27.705 25.3261 27.6382 25.4783 27.5269L33.2174 21.6494V29.2189H16.6957Z" fill="white"/>
</svg>
