<svg width="28" height="28" viewBox="0 0 28 28" fill="none" xmlns="http://www.w3.org/2000/svg">
<path d="M22.7379 8.3875L16.6128 2.2625C16.4378 2.0875 16.2628 2 16.0003 2H7.25004C6.28752 2 5.5 2.7875 5.5 3.75V24.75C5.5 25.7125 6.28752 26.5 7.25004 26.5H21.2504C22.2129 26.5 23.0004 25.7125 23.0004 24.75V9C23.0004 8.7375 22.9129 8.5625 22.7379 8.3875ZM16.0003 4.1L20.9004 9H16.0003V4.1ZM21.2504 24.75H7.25004V3.75H14.2502V9C14.2502 9.9625 15.0377 10.75 16.0003 10.75H21.2504V24.75Z" fill="#7B8288"/>
<path d="M9 19.5H19.5V21.5H9V19.5Z" fill="#7B8288"/>
<path d="M9 14H19.5V16H9V14Z" fill="#7B8288"/>
</svg>
