<svg width="13" height="10" viewBox="0 0 13 10" fill="none" xmlns="http://www.w3.org/2000/svg">
<path d="M8.9382 7.63153C8.09904 8.61878 7.67945 9.11241 7.17925 9.29302C6.74029 9.45153 6.25971 9.45153 5.82074 9.29302C5.32055 9.11241 4.90096 8.61878 4.06179 7.63152L2.48161 5.77248C1.05448 4.09351 0.340921 3.25403 0.32536 2.54381C0.311835 1.92652 0.58418 1.33759 1.06328 0.948113C1.61449 0.5 2.71627 0.5 4.91981 0.5L8.08019 0.5C10.2837 0.5 11.3855 0.5 11.9367 0.948113C12.4158 1.33759 12.6882 1.92652 12.6746 2.54381C12.6591 3.25403 11.9455 4.09351 10.5184 5.77247L8.9382 7.63153Z" fill="#045DF3"/>
</svg>
