<svg width="13" height="10" viewBox="0 0 13 10" fill="none" xmlns="http://www.w3.org/2000/svg">
<path d="M8.55723 7.3077C8.13189 7.8081 7.83332 8.15868 7.57998 8.40931C7.32998 8.65662 7.16105 8.768 7.00944 8.82274C6.68022 8.94162 6.31978 8.94162 5.99056 8.82274C5.83895 8.768 5.67002 8.65662 5.42002 8.40931C5.16667 8.15868 4.8681 7.8081 4.44276 7.3077L2.86258 5.44865C2.14256 4.60158 1.62529 3.99226 1.28272 3.50664C0.93382 3.01206 0.829552 2.72964 0.82524 2.53286C0.815097 2.06989 1.01935 1.6282 1.37868 1.33609C1.5314 1.21192 1.81412 1.10846 2.41693 1.05398C3.0088 1.00049 3.80807 1 4.91981 1L8.08019 1C9.19193 1 9.9912 1.00049 10.5831 1.05398C11.1859 1.10846 11.4686 1.21192 11.6213 1.33609C11.9806 1.6282 12.1849 2.06989 12.1748 2.53286C12.1704 2.72964 12.0662 3.01206 11.7173 3.50664C11.3747 3.99226 10.8574 4.60157 10.1374 5.44865L8.55723 7.3077Z" fill="#F2F2F2" stroke="#7B8288"/>
</svg>
