<svg width="15" height="24" viewBox="0 0 15 24" fill="none" xmlns="http://www.w3.org/2000/svg">
<path d="M8 12C11.7561 12 15 9.33333 15 5.92593C15 2.66667 11.9268 0 8 0C4.2439 0 1 2.66667 1 5.92593C1 9.18518 4.2439 12 8 12ZM8 3.40741C9.53658 3.40741 10.9024 4.59259 10.9024 5.92593C10.9024 7.25926 9.53658 8.44444 8 8.44444C6.46341 8.44444 5.09756 7.25926 5.09756 5.92593C5.09756 4.59259 6.46341 3.40741 8 3.40741Z" fill="#7B8288"/>
<path d="M10.1171 17.7001C11.4351 17.4071 12.7531 16.9676 14.0711 16.2351C15.0596 15.7955 15.2244 14.6235 14.7301 13.8909C14.0711 13.0119 12.9179 12.7189 11.9294 13.3049C9.12866 14.77 5.66893 14.77 2.8682 13.3049C2.04446 12.8654 0.891215 13.0119 0.23222 13.8909C-0.262026 14.6235 0.0674712 15.7955 0.891215 16.2351C2.04446 16.9676 3.36245 17.4071 4.84519 17.7001L1.05596 21.0698C0.23222 21.8024 0.23222 22.8279 1.05596 23.5605C1.38546 23.8535 1.87971 24 2.37395 24C2.8682 24 3.36245 23.8535 3.69195 23.5605L7.48117 20.1908L11.1056 23.414C11.9294 24.1465 13.2474 24.1465 14.0711 23.414C14.8949 22.6814 14.8949 21.6559 14.0711 20.9233L10.1171 17.7001Z" fill="#7B8288"/>
</svg>
