<?xml version="1.0" encoding="utf-8"?>
<!-- Generator: Adobe Illustrator 23.1.0, SVG Export Plug-In . SVG Version: 6.00 Build 0)  -->
<svg version="1.1" id="Слой_1" xmlns="http://www.w3.org/2000/svg" xmlns:xlink="http://www.w3.org/1999/xlink" x="0px" y="0px"
	 viewBox="0 0 15 24" style="enable-background:new 0 0 15 24;" xml:space="preserve">
<style type="text/css">
	.st0{fill:#38ACF5;}
</style>
<path class="st0" d="M8,12c3.8,0,7-2.7,7-6.1C15,2.7,11.9,0,8,0C4.2,0,1,2.7,1,5.9C1,9.2,4.2,12,8,12z M8,3.4c1.5,0,2.9,1.2,2.9,2.5
	c0,1.3-1.4,2.5-2.9,2.5c-1.5,0-2.9-1.2-2.9-2.5C5.1,4.6,6.5,3.4,8,3.4z"/>
<path class="st0" d="M10.1,17.7c1.3-0.3,2.6-0.7,4-1.5c1-0.4,1.2-1.6,0.7-2.3c-0.7-0.9-1.8-1.2-2.8-0.6c-2.8,1.5-6.3,1.5-9.1,0
	c-0.8-0.4-2-0.3-2.6,0.6c-0.5,0.7-0.2,1.9,0.7,2.3c1.2,0.7,2.5,1.2,4,1.5l-3.8,3.4c-0.8,0.7-0.8,1.8,0,2.5C1.4,23.9,1.9,24,2.4,24
	c0.5,0,1-0.1,1.3-0.4l3.8-3.4l3.6,3.2c0.8,0.7,2.1,0.7,3,0c0.8-0.7,0.8-1.8,0-2.5L10.1,17.7z"/>
</svg>
