<?xml version="1.0" encoding="utf-8"?>
<!-- Generator: Adobe Illustrator 23.1.0, SVG Export Plug-In . SVG Version: 6.00 Build 0)  -->
<svg version="1.1" id="Слой_1" xmlns="http://www.w3.org/2000/svg" xmlns:xlink="http://www.w3.org/1999/xlink" x="0px" y="0px"
	 viewBox="0 0 25 20" style="enable-background:new 0 0 25 20;" xml:space="preserve">
<style type="text/css">
	.st0{fill-rule:evenodd;clip-rule:evenodd;fill:#38ACF5;}
</style>
<path class="st0" d="M19.1,19.8c0.3,0.2,0.8,0.3,1.1,0.2c0.3-0.2,0.6-0.5,0.8-0.8C22,15,24,4.8,25,1c0-0.3,0-0.6-0.3-0.8
	c-0.2-0.2-0.5-0.3-0.8-0.2C19.4,1.6,6.1,6.3,0.5,8.3C0.2,8.5-0.1,8.8,0,9.1c0,0.3,0.3,0.6,0.6,0.8c2.4,0.8,5.7,1.7,5.7,1.7
	s1.4,4.4,2.2,6.6c0.2,0.3,0.3,0.5,0.6,0.6c0.3,0,0.6,0,0.8-0.2c1.3-1.2,3.2-2.9,3.2-2.9S16.9,18.3,19.1,19.8z M7.7,11.1l1.7,5.5
	l0.3-3.5c0,0,6.7-5.8,10.7-9.2c0.2-0.2,0.2-0.3,0-0.3c-0.2-0.2-0.3-0.2-0.3,0C15.5,6.2,7.7,11.1,7.7,11.1z"/>
</svg>
