<svg width="25" height="20" viewBox="0 0 25 20" fill="none" xmlns="http://www.w3.org/2000/svg">
<path fill-rule="evenodd" clip-rule="evenodd" d="M19.1182 19.7838C19.4362 19.9367 19.9131 20.0896 20.231 19.9367C20.5489 19.7838 20.8669 19.4781 21.0258 19.1723C21.9796 15.0448 24.0462 4.80235 25 0.980554C25 0.67481 25 0.369066 24.6821 0.216194C24.5231 0.0633217 24.2052 -0.0895503 23.8872 0.0633216C19.4362 1.59204 6.083 6.33107 0.519182 8.31841C0.201249 8.47128 -0.116683 8.77702 0.0422829 9.08277C0.0422829 9.38851 0.360216 9.69426 0.678148 9.84713C3.06264 10.6115 6.40094 11.5287 6.40094 11.5287C6.40094 11.5287 7.83163 15.962 8.62647 18.1022C8.78543 18.408 8.9444 18.5608 9.26233 18.7137C9.58027 18.7137 9.8982 18.7137 10.0572 18.5608C11.3289 17.3379 13.2365 15.6563 13.2365 15.6563C13.2365 15.6563 16.8927 18.2551 19.1182 19.7838ZM7.67267 11.0701L9.4213 16.5735L9.73923 13.0574C9.73923 13.0574 16.4158 7.2483 20.39 3.88512C20.5489 3.73225 20.5489 3.57938 20.39 3.57938C20.231 3.42651 20.072 3.42651 20.072 3.57938C15.462 6.1782 7.67267 11.0701 7.67267 11.0701Z" fill="#7B8288"/>
</svg>
