<?xml version="1.0" encoding="utf-8"?>
<!-- Generator: Adobe Illustrator 23.1.0, SVG Export Plug-In . SVG Version: 6.00 Build 0)  -->
<svg version="1.1" id="Слой_1" xmlns="http://www.w3.org/2000/svg" xmlns:xlink="http://www.w3.org/1999/xlink" x="0px" y="0px"
	 viewBox="0 0 32 20" style="enable-background:new 0 0 32 20;" xml:space="preserve">
<style type="text/css">
	.st0{fill:#38ACF5;}
</style>
<path class="st0" d="M31.3,1.4c0.2-0.8,0-1.4-1.1-1.4h-3.5c-0.9,0-1.3,0.5-1.5,1c0,0-1.8,4.6-4.3,7.5c-0.8,0.9-1.2,1.1-1.6,1.1
	c-0.2,0-0.5-0.3-0.5-1.1V1.4c0-0.9-0.3-1.4-1-1.4h-5.5c-0.6,0-0.9,0.4-0.9,0.8c0,0.9,1.3,1.1,1.4,3.6v5.4c0,1.2-0.2,1.4-0.6,1.4
	c-1.2,0-4.1-4.6-5.8-9.8C5.9,0.4,5.6,0,4.7,0H1.2C0.2,0,0,0.5,0,1c0,1,1.2,5.8,5.5,12.2c2.9,4.4,7,6.7,10.7,6.7
	c2.2,0,2.5-0.5,2.5-1.4v-3.3c0-1.1,0.2-1.3,0.9-1.3c0.5,0,1.4,0.3,3.5,2.4c2.4,2.5,2.8,3.6,4.1,3.6h3.5c1,0,1.5-0.5,1.2-1.6
	c-0.3-1-1.4-2.5-3-4.3c-0.8-1-2-2.1-2.4-2.7c-0.5-0.7-0.4-1,0-1.6C26.6,9.8,30.8,3.5,31.3,1.4z"/>
</svg>
