<?xml version="1.0" encoding="utf-8"?>
<!-- Generator: Adobe Illustrator 23.1.0, SVG Export Plug-In . SVG Version: 6.00 Build 0)  -->
<svg version="1.1" id="Слой_1" xmlns="http://www.w3.org/2000/svg" xmlns:xlink="http://www.w3.org/1999/xlink" x="0px" y="0px"
	 viewBox="0 0 74.8 74.5" style="enable-background:new 0 0 74.8 74.5;" xml:space="preserve">
<style type="text/css">
	.st0{fill-rule:evenodd;clip-rule:evenodd;fill:#DFEEF8;}
</style>
<path class="st0" d="M54.8-10.5H0v68h17.2c0,0-0.1,0.1-0.1,0.1l0.8,1.4c0.8,1.5,1.6,2.8,2.4,4c1.1-1.7,2.3-3.3,3.6-5.1
	c0.1-0.2,0.2-0.3,0.4-0.5h7.3c-3,2.6-6,5.7-8.8,9c15.1,18.3,31.4,0,42.9-21.1c-2.8,0.3-5.7,0.6-9,1c-0.6,0.1-1.3,0.2-1.9,0.3v-12
	c3.1-0.7,6.3-1.2,9.6-1.6c2.9-0.4,5.4-0.7,7.8-1l0.6-1.5c1.1-3.3,1.7-6,1.9-8.2c-3,0.4-6.2,0.8-9.9,1.4c-1,0.2-2,0.3-3.1,0.5
	c-2.3,0.4-4.7,0.7-7,1.2v-12c5.3-1.8,11.4-2.6,16.2-2.9c-2.5-2.6-6.6-5.3-12.1-6.4c-1.3-0.3-2.7-0.6-4.1-0.9V-10.5z M54.8,3.2
	c-0.7-0.1-1.4-0.3-2.2-0.4c-3.9,2.5-7.1,5.6-9.8,9.2c-0.8,1-1.8,2.9-2.9,5c-3,5.6-7.3,13.4-12.6,16.6c-5.9,3.5-10.3,4.5-15.7,5.1
	C10.3,38.9,9.1,39,8,39.2c-0.3,0-0.6,0.1-0.9,0.1c1.6,3.2,3.4,6.5,5.1,9.6c3-0.8,6.1-2,8.9-3.6c6.4-3.8,11.9-11.5,15.1-16.1
	c3.5-5,7.1-9.7,13.3-13.3c1.6-0.9,3.4-1.7,5.3-2.4V3.2z M54.8,25.5c-3.6,0.7-6.9,1.8-9.8,3.5c-3.7,2.2-8,5.7-12.4,11.9
	c-4.2,6-8.8,12.4-15.4,16.7h7.1c0.4-0.5,0.8-1,1.2-1.6c4-5.3,9.4-12.4,14.2-15.3c5.1-3,10.1-4.8,15.1-6V25.5z M54.8,46.7
	c-7.5,1.2-12.5,3.6-17.3,6.5c-1.8,1.1-3.9,2.6-5.9,4.4h23.2V46.7z M1.4,25.4c0.3,0.9,0.6,1.8,0.9,2.7c2.6-0.3,5.4-0.6,8.3-0.9
	c7.8-0.7,14-2.6,20.7-6.6c4.7-2.8,10.2-10.5,15.6-18.9C21.8-2.3-6.6-1.1,1.4,25.4z"/>
</svg>
