<?xml version="1.0" encoding="utf-8"?>
<!-- Generator: Adobe Illustrator 23.1.0, SVG Export Plug-In . SVG Version: 6.00 Build 0)  -->
<svg version="1.1" id="Слой_1" xmlns="http://www.w3.org/2000/svg" xmlns:xlink="http://www.w3.org/1999/xlink" x="0px" y="0px"
	 viewBox="0 0 61.7 62.1" style="enable-background:new 0 0 61.7 62.1;" xml:space="preserve">
<style type="text/css">
	.st0{fill-rule:evenodd;clip-rule:evenodd;fill:#DFEEF8;}
</style>
<path class="st0" d="M61.7,0H-1.7v50.1h14c-3.4,0.6-6.9,0.7-9.7,0.7c2,2.3,5.2,4.7,9.7,6c1.6,0.5,3.4,1,5.1,1.4
	c3.3-1.8,6.1-4.3,8.5-7.1c0.2-0.3,0.5-0.6,0.8-1h2.9c-2.4,2.6-4.9,5.9-7.4,9.3c17.8,4,37.7,4.9,39.5-9.3h0.1V0z M61.5,50.1
	c0.3-2.2,0.1-4.9-0.6-7.9c-0.2-0.7-0.4-1.5-0.6-2.2c-2.2,0.1-4.5,0.2-6.9,0.3c-6.5,0.2-11.7,1.4-17.4,4.4c-2,1-4.1,3-6.4,5.5H61.5z
	 M26.6,50.1c0.6-0.8,1.2-1.8,1.9-3c2.8-4.4,6.7-10.8,11.2-13.1c5-2.6,8.8-3.2,13.3-3.4c1.1-0.1,2.2-0.1,3.1-0.2c0.2,0,0.5,0,0.7,0
	c-1.2-2.8-2.5-5.5-3.7-8.2c-2.5,0.5-5.2,1.3-7.6,2.5c-5.5,2.8-10.4,8.9-13.3,12.6c-3.2,4-6.4,7.7-11.6,10.3c-2.4,1.2-5.3,2-8.3,2.5
	H26.6z M2.6,32.9L2,34.1c-1.1,2.7-1.7,4.9-2,6.7c2.5-0.1,5.2-0.3,8.2-0.6c0.8-0.1,1.7-0.2,2.6-0.2c5-0.4,10.1-0.9,14.2-3
	c3.1-1.6,6.9-4.3,10.9-9.2c3.8-4.7,7.9-9.9,13.7-13.1l-0.6-1.2c-0.6-1.3-1.2-2.4-1.8-3.5c-1,1.3-2.1,2.6-3.3,4
	c-0.4,0.5-0.9,1-1.4,1.6c-3.6,4.1-8.4,9.8-12.5,11.9c-7.1,3.6-13.7,4.6-20.8,5C6.7,32.6,4.6,32.8,2.6,32.9z M45.2,6.9
	C33.6-9,19.2,5.3,8.7,22.2c2.3-0.1,4.7-0.2,7.5-0.4c7.1-0.4,11.7-2.3,16.2-4.6C36.2,15.3,41.1,11.3,45.2,6.9z"/>
</svg>
