<?xml version="1.0" encoding="utf-8"?>
<!-- Generator: Adobe Illustrator 23.1.0, SVG Export Plug-In . SVG Version: 6.00 Build 0)  -->
<svg version="1.1" id="Слой_1" xmlns="http://www.w3.org/2000/svg" xmlns:xlink="http://www.w3.org/1999/xlink" x="0px" y="0px"
	 viewBox="0 0 52 57" style="enable-background:new 0 0 52 57;" xml:space="preserve">
<style type="text/css">
	.st0{fill-rule:evenodd;clip-rule:evenodd;fill:#DFEEF8;}
</style>
<path class="st0" d="M47-6H0v63h47V39.2c1.5-1.6,2.7-2.9,3.5-4.1c-1.1-0.4-2.2-0.8-3.5-1.3V24c1.8,0.6,3.5,1.3,5,1.9
	c-0.7-2.4-2.3-5.2-5-7.6V-6z M47,18.3c-0.3-0.2-0.5-0.5-0.8-0.7c-1.2-1-2.4-2-3.7-3c-3.4,0.3-6.6,1.3-9.6,2.7
	c-0.9,0.4-2.1,1.3-3.6,2.3c-3.9,2.6-9.4,6.4-13.9,6.6c-5.1,0.3-8.4-0.5-12.1-2c-1-0.4-1.8-0.7-2.6-1c-0.2-0.1-0.4-0.1-0.6-0.2
	c0,2.7,0,5.4,0.1,8.1c2.3,0.5,4.7,0.8,7.1,0.6c5.5-0.3,11.7-3.5,15.5-5.5c4.1-2.1,8-3.9,13.3-4.3c3.4-0.2,7.4,0.7,11,1.9V18.3z
	 M47,33.8c-1.1-0.4-2.3-0.8-3.5-1.2c-0.7-0.2-1.4-0.5-2.2-0.7c-4.2-1.4-8.6-2.9-12.7-2.7c-3.2,0.2-7.2,1-12.3,3.6
	C11.5,35.3,6.2,38,0.4,38.5l0,1.2c0,1.2,0.1,2.4,0.2,3.5c1.3-0.7,2.7-1.4,4.1-2.1c0.5-0.3,1.1-0.5,1.7-0.8c4.4-2.1,10.4-5,14.6-5.2
	c7.1-0.4,12.9,1.2,18.9,3.4c2.1,0.8,3.8,1.4,5.5,2l0.9-0.7c0.2-0.2,0.4-0.4,0.6-0.6V33.8z M1.2,46.4C4.9,63.5,22,57,36.7,47
	c-1.9-0.8-4-1.5-6.3-2.4c-6-2.2-10.5-2.3-14.9-2.1C11.5,42.8,6.2,44.3,1.2,46.4z M0.9,12c-0.1,0.7-0.2,1.4-0.3,2
	c1.8,0.7,3.8,1.4,5.8,2.3c5.4,2.2,10.2,3,15.9,2.7c4-0.2,10.3-3.4,16.7-7.1C23.8,0.7,4.7-8.1,0.9,12z"/>
</svg>
