<svg width="134" height="47" viewBox="0 0 134 47" fill="none" xmlns="http://www.w3.org/2000/svg">
<path fill-rule="evenodd" clip-rule="evenodd" d="M57.3733 13.8217V17.4338C57.3733 17.5565 57.4345 17.6322 57.5553 17.6596C57.8379 17.714 58.1822 17.742 58.5856 17.742C59.5413 17.742 60.2431 17.5593 60.6874 17.1972C61.1314 16.8346 61.354 16.277 61.354 15.5243C61.354 14.2662 60.3436 13.6374 58.3228 13.6374H57.5553C57.4345 13.6374 57.3733 13.699 57.3733 13.8217ZM57.3733 7.95515V10.9697C57.3733 11.0796 57.4345 11.1339 57.5553 11.1339H58.0407C60.0064 11.1339 60.9899 10.5393 60.9899 9.34838C60.9899 8.21408 60.1686 7.64693 58.5248 7.64693C58.1346 7.64693 57.8048 7.67437 57.5351 7.72762C57.4267 7.75511 57.3733 7.83075 57.3733 7.95515ZM55.1312 20.223C54.808 20.195 54.5379 20.0521 54.324 19.7926C54.1084 19.5337 54 19.2384 54 18.9099V6.4773C54 6.1343 54.1109 5.83785 54.3335 5.58511C54.5553 5.33123 54.8283 5.19111 55.1523 5.16421C56.2024 5.05439 57.2314 5 58.243 5C62.1484 5 64.1008 6.27891 64.1008 8.83671C64.1008 9.69811 63.8282 10.43 63.2825 11.0325C62.7367 11.6327 62.0073 12.0166 61.09 12.1808C61.0776 12.1808 61.071 12.1937 61.071 12.2217C61.071 12.2363 61.0834 12.2425 61.1107 12.2425C62.1749 12.3921 63.021 12.8035 63.6453 13.4738C64.2721 14.144 64.5854 14.9449 64.5854 15.8741C64.5854 17.3923 64.0897 18.5249 63.0996 19.2692C62.1099 20.0151 60.5583 20.3872 58.4437 20.3872C57.3807 20.3872 56.2752 20.3329 55.1312 20.223ZM76.1409 12.6936C76.1409 9.47896 75.0098 7.87277 72.747 7.87277C70.485 7.87277 69.3526 9.47896 69.3526 12.6936C69.3526 15.9077 70.485 17.5161 72.747 17.5161C75.0098 17.5161 76.1409 15.9077 76.1409 12.6936ZM77.7968 18.3456C76.558 19.7074 74.8753 20.3872 72.747 20.3872C70.6178 20.3872 68.9351 19.7074 67.6963 18.3456C66.4576 16.986 65.8382 15.1007 65.8382 12.6936C65.8382 10.286 66.4576 8.40295 67.6963 7.04166C68.9351 5.67982 70.6178 5 72.747 5C74.8753 5 76.558 5.67982 77.7968 7.04166C79.0355 8.40295 79.6566 10.286 79.6566 12.6936C79.6566 15.1007 79.0355 16.986 77.7968 18.3456ZM85.7577 17.2275C85.7312 17.255 85.7279 17.2858 85.7482 17.3211C85.7676 17.3547 85.7974 17.371 85.8388 17.371H89.8588C89.9796 17.371 90.0408 17.3161 90.0408 17.2085V8.18045C90.0408 8.07117 89.9796 8.01568 89.8588 8.01568H87.5554C87.4346 8.01568 87.3738 8.07735 87.3738 8.19951C87.3738 10.7713 87.2724 12.6113 87.0714 13.7198C86.8682 14.8272 86.4305 15.9962 85.7577 17.2275ZM82.161 23.4651C81.8519 23.4651 81.5822 23.3491 81.3538 23.1165C81.1254 22.8845 81.0095 22.611 81.0095 22.2966V18.2946C81.0095 18.0345 81.0981 17.8154 81.2727 17.6389C81.4477 17.4612 81.6632 17.371 81.9181 17.371C82.0406 17.371 82.1151 17.3374 82.1424 17.2701C82.9351 16.0388 83.4606 14.8412 83.7171 13.6783C83.9732 12.5159 84.1019 10.6284 84.1019 8.01568V6.37416C84.1019 6.0598 84.2128 5.7863 84.435 5.55372C84.6567 5.32 84.9228 5.20399 85.2322 5.20399H92.2618C92.573 5.20399 92.8415 5.32 93.0711 5.55372C93.2995 5.7863 93.4137 6.0598 93.4137 6.37416V17.2085C93.4137 17.3161 93.4675 17.371 93.5755 17.371H94.0405C94.3496 17.371 94.6202 17.4881 94.8478 17.7213C95.0782 17.9533 95.1924 18.2268 95.1924 18.5412V22.2966C95.1924 22.611 95.0782 22.8845 94.8478 23.1165C94.6202 23.3491 94.3496 23.4651 94.0405 23.4651H93.1717C92.8622 23.4651 92.5916 23.3491 92.3632 23.1165C92.1348 22.8845 92.0194 22.611 92.0194 22.2966V20.3682C92.0194 20.2438 91.9652 20.1827 91.8593 20.1827H84.3439C84.2364 20.1827 84.183 20.2438 84.183 20.3682V22.2966C84.183 22.611 84.0688 22.8845 83.8379 23.1165C83.6095 23.3491 83.3402 23.4651 83.0307 23.4651H82.161ZM101.232 14.1295C101.219 14.1709 101.228 14.2079 101.263 14.2438C101.295 14.2774 101.333 14.2936 101.373 14.2936H104.081C104.122 14.2936 104.157 14.2774 104.192 14.2438C104.225 14.2079 104.236 14.1709 104.222 14.1295L102.747 8.24152C102.747 8.22695 102.741 8.22081 102.726 8.22081C102.714 8.22081 102.708 8.22695 102.708 8.24152L101.232 14.1295ZM97.3133 20.1827C97.0291 20.1827 96.804 20.0667 96.6356 19.8346C96.4676 19.601 96.4312 19.3482 96.5247 19.0747L100.606 6.31254C100.713 5.98411 100.905 5.71849 101.181 5.51226C101.457 5.30713 101.763 5.20399 102.101 5.20399H103.434C103.784 5.20399 104.1 5.30713 104.384 5.51226C104.666 5.71849 104.855 5.98411 104.949 6.31254L109.01 19.0747C109.103 19.3482 109.067 19.601 108.9 19.8346C108.729 20.0667 108.504 20.1827 108.222 20.1827H106.868C106.532 20.1827 106.23 20.0762 105.959 19.8655C105.69 19.6531 105.515 19.3818 105.434 19.0545L104.949 17.1053C104.937 16.9955 104.868 16.9411 104.747 16.9411H100.707C100.599 16.9411 100.532 16.9955 100.505 17.1053L100.019 19.0545C99.9394 19.3818 99.7643 19.6531 99.495 19.8655C99.2248 20.0762 98.9224 20.1827 98.5864 20.1827H97.3133ZM57.3733 30.5675V35.0188C57.3733 35.1289 57.4345 35.1967 57.5553 35.2242C58.0138 35.2789 58.3775 35.3064 58.6468 35.3064C59.6162 35.3064 60.3668 35.0777 60.8976 34.6198C61.4309 34.1611 61.6966 33.5211 61.6966 32.7011C61.6966 31.073 60.6796 30.2598 58.6468 30.2598C58.3092 30.2598 57.9393 30.2934 57.5351 30.3612C57.4267 30.3887 57.3733 30.4582 57.3733 30.5675ZM55.1523 42.795C54.8412 42.795 54.5726 42.6789 54.3426 42.4468C54.1142 42.2139 54 41.9398 54 41.626V29.0902C54 28.7612 54.1084 28.4664 54.324 28.207C54.5379 27.9469 54.808 27.804 55.1312 27.7765C56.2752 27.6672 57.3807 27.6118 58.4437 27.6118C62.7537 27.6118 64.9089 29.2398 64.9089 32.4965C64.9089 34.2606 64.407 35.5957 63.4033 36.5064C62.4008 37.417 60.9299 37.8715 58.9894 37.8715C58.4772 37.8715 57.9993 37.8503 57.5553 37.8101C57.4345 37.8101 57.3733 37.8643 57.3733 37.974V41.626C57.3733 41.9398 57.2591 42.2139 57.0307 42.4468C56.8019 42.6789 56.5321 42.795 56.2227 42.795H55.1523ZM76.3627 35.3064C76.3627 32.0911 75.2315 30.4851 72.9691 30.4851C70.7068 30.4851 69.5743 32.0911 69.5743 35.3064C69.5743 38.5204 70.7068 40.1291 72.9691 40.1291C75.2315 40.1291 76.3627 38.5204 76.3627 35.3064ZM78.0194 40.9584C76.7798 42.3198 75.0971 43 72.9691 43C70.8404 43 69.1573 42.3198 67.9181 40.9584C66.6793 39.5988 66.06 37.7135 66.06 35.3064C66.06 32.8989 66.6793 31.0159 67.9181 29.654C69.1573 28.2921 70.8404 27.6118 72.9691 27.6118C75.0971 27.6118 76.7798 28.2921 78.0194 29.654C79.2581 31.0159 79.8787 32.8989 79.8787 35.3064C79.8787 37.7135 79.2581 39.5988 78.0194 40.9584ZM88.2419 43C86.0337 43 84.2972 42.3376 83.0307 41.0093C81.7646 39.6839 81.1312 37.783 81.1312 35.3064C81.1312 32.8713 81.7443 30.9794 82.9707 29.6327C84.1954 28.2854 85.905 27.6118 88.1012 27.6118C89.1505 27.6118 90.0665 27.688 90.8489 27.8376C91.1724 27.8925 91.4339 28.0568 91.6354 28.3314C91.839 28.6032 91.9387 28.9108 91.9387 29.2544V29.9101C91.9387 30.1965 91.8245 30.4224 91.5957 30.5871C91.3673 30.7507 91.1182 30.7995 90.8489 30.73C90.0938 30.5254 89.3131 30.4224 88.5054 30.4224C87.294 30.4224 86.3465 30.8399 85.6671 31.6749C84.9869 32.5088 84.6455 33.7193 84.6455 35.3064C84.6455 36.8664 85.0105 38.0757 85.737 38.938C86.4652 39.8 87.4346 40.2303 88.6469 40.2303C89.4541 40.2303 90.2427 40.1291 91.0103 39.9228C91.2788 39.8542 91.532 39.9038 91.7674 40.0656C92.0033 40.2303 92.1208 40.4552 92.1208 40.7445V41.3591C92.1208 41.7018 92.0161 42.0089 91.808 42.2833C91.5986 42.5553 91.3326 42.72 91.0103 42.7742C90.2154 42.9255 89.2924 43 88.2419 43ZM101.292 43C99.0841 43 97.3464 42.3376 96.0807 41.0093C94.8147 39.6839 94.1821 37.783 94.1821 35.3064C94.1821 32.8713 94.794 30.9794 96.0199 29.6327C97.245 28.2854 98.9555 27.6118 101.151 27.6118C102.201 27.6118 103.116 27.688 103.899 27.8376C104.222 27.8925 104.484 28.0568 104.686 28.3314C104.889 28.6032 104.988 28.9108 104.988 29.2544V29.9101C104.988 30.1965 104.874 30.4224 104.646 30.5871C104.417 30.7507 104.168 30.7995 103.899 30.73C103.144 30.5254 102.364 30.4224 101.555 30.4224C100.343 30.4224 99.3965 30.8399 98.7176 31.6749C98.0374 32.5088 97.6964 33.7193 97.6964 35.3064C97.6964 36.8664 98.0605 38.0757 98.7867 38.938C99.5157 39.8 100.485 40.2303 101.697 40.2303C102.504 40.2303 103.293 40.1291 104.061 39.9228C104.328 39.8542 104.583 39.9038 104.817 40.0656C105.054 40.2303 105.171 40.4552 105.171 40.7445V41.3591C105.171 41.7018 105.066 42.0089 104.858 42.2833C104.649 42.5553 104.383 42.72 104.061 42.7742C103.266 42.9255 102.342 43 101.292 43ZM109.292 42.795C108.982 42.795 108.713 42.6789 108.484 42.4468C108.255 42.2139 108.141 41.9398 108.141 41.626V28.9871C108.141 28.6727 108.255 28.3981 108.484 28.1666C108.713 27.9329 108.982 27.8169 109.292 27.8169H110.283C110.592 27.8169 110.862 27.9329 111.089 28.1666C111.318 28.3981 111.432 28.6727 111.432 28.9871V36.9884C111.432 37.0028 111.441 37.0096 111.454 37.0096C111.468 37.0096 111.474 37.0028 111.474 36.9884L115.716 28.843C116.067 28.1582 116.625 27.8169 117.393 27.8169H118.383C118.692 27.8169 118.962 27.9329 119.19 28.1666C119.421 28.3981 119.535 28.6727 119.535 28.9871V41.626C119.535 41.9398 119.421 42.2139 119.19 42.4468C118.962 42.6789 118.692 42.795 118.383 42.795H117.393C117.083 42.795 116.814 42.6789 116.585 42.4468C116.356 42.2139 116.241 41.9398 116.241 41.626V33.624C116.241 33.6096 116.235 33.6033 116.221 33.6033C116.208 33.6033 116.202 33.6096 116.202 33.624L111.959 41.7687C111.609 42.4536 111.049 42.795 110.283 42.795H109.292ZM123.758 42.795C123.447 42.795 123.178 42.6789 122.949 42.4468C122.72 42.2139 122.606 41.9398 122.606 41.626V28.9871C122.606 28.6727 122.72 28.3981 122.949 28.1666C123.178 27.9329 123.447 27.8169 123.758 27.8169H124.748C125.057 27.8169 125.327 27.9329 125.555 28.1666C125.784 28.3981 125.898 28.6727 125.898 28.9871V36.9884C125.898 37.0028 125.906 37.0096 125.919 37.0096C125.933 37.0096 125.939 37.0028 125.939 36.9884L130.182 28.843C130.532 28.1582 131.091 27.8169 131.858 27.8169H132.849C133.157 27.8169 133.427 27.9329 133.656 28.1666C133.886 28.3981 134 28.6727 134 28.9871V41.626C134 41.9398 133.886 42.2139 133.656 42.4468C133.427 42.6789 133.157 42.795 132.849 42.795H131.858C131.549 42.795 131.28 42.6789 131.05 42.4468C130.82 42.2139 130.707 41.9398 130.707 41.626V33.624C130.707 33.6096 130.7 33.6033 130.685 33.6033C130.673 33.6033 130.667 33.6096 130.667 33.624L126.425 41.7687C126.075 42.4536 125.514 42.795 124.748 42.795H123.758Z" fill="white"/>
<path fill-rule="evenodd" clip-rule="evenodd" d="M38.382 32.7676L37.6225 33.383C36.2365 32.8913 34.7698 32.3669 33.0681 31.7477C28.0682 29.9331 23.3311 28.6156 17.4302 28.9625C13.5284 29.1923 7.64535 32.2132 3.96963 33.9302C2.75794 34.5066 1.64313 35.083 0.558399 35.6637C0.456496 34.7683 0.387448 33.8146 0.357936 32.7917L0.326752 31.785C5.16629 31.3313 9.52025 29.1094 13.4967 27.0382C17.658 24.8661 21.0219 24.202 23.6268 24.0474C27.6194 23.8131 31.9143 25.5313 35.9509 26.842C38.1448 27.5576 40.0125 28.2324 41.7354 28.874C40.987 30.0138 39.9139 31.2893 38.382 32.7676ZM30.3184 38.7923C18.1563 47.0113 4.08879 52.3956 0.974918 38.2282C5.09389 36.5014 9.54029 35.291 12.7533 35.1021C16.4708 34.8831 20.1577 34.9962 25.113 36.8131C27.0358 37.5213 28.7319 38.1693 30.3184 38.7923ZM0.101231 25.6753C0.0282839 23.4797 -0.0201615 21.2426 0.00823751 19.0341C0.837934 19.3373 1.70606 19.65 2.69278 20.026C5.79272 21.2017 8.53687 21.8882 12.7188 21.6411C17.9665 21.3329 24.7104 15.493 27.2535 14.2664C29.7264 13.0632 32.3492 12.2618 35.1651 12.0237C36.217 12.8508 37.2355 13.679 38.2072 14.4944C40.8628 16.6665 42.357 19.2437 43 21.3659C39.3465 19.757 33.9635 17.9543 29.7638 18.2014C25.3975 18.4575 22.1306 19.961 18.7817 21.7083C15.7051 23.2959 10.5415 25.9426 5.99042 26.2099C3.98856 26.327 1.97112 26.104 0.101231 25.6753ZM0.506612 11.5799C0.58513 11.0083 0.674778 10.4462 0.776681 9.89532C3.84712 -6.68433 19.6888 0.596223 32.2696 9.82471C26.9294 12.8435 21.7575 15.4773 18.4309 15.6735C13.6921 15.9525 9.73632 15.2487 5.29827 13.4442C3.6294 12.7673 2.01845 12.1475 0.506612 11.5799Z" fill="white"/>
<path fill-rule="evenodd" clip-rule="evenodd" d="M57.373 13.8212V17.4338C57.373 17.5559 57.4346 17.6321 57.5553 17.6595C57.8383 17.7139 58.1821 17.7419 58.5854 17.7419C59.5412 17.7419 60.2436 17.5593 60.6874 17.1968C61.1316 16.8344 61.3535 16.277 61.3535 15.5241C61.3535 14.2659 60.3432 13.6374 58.323 13.6374H57.5553C57.4346 13.6374 57.373 13.699 57.373 13.8212ZM57.373 7.95497V10.9699C57.373 11.0791 57.4346 11.1334 57.5553 11.1334H58.0412C60.0064 11.1334 60.9899 10.5391 60.9899 9.34814C60.9899 8.21374 60.1684 7.64684 58.5247 7.64684C58.135 7.64684 57.8053 7.67374 57.5346 7.7275C57.4268 7.75495 57.373 7.83057 57.373 7.95497ZM55.1314 20.2229C54.8078 20.1949 54.5376 20.052 54.3235 19.7927C54.1078 19.5333 54 19.2386 54 18.9098V6.47719C54 6.13435 54.1107 5.83747 54.333 5.58482C54.5554 5.33108 54.8285 5.19104 55.152 5.16414C56.2024 5.05435 57.2313 5 58.2424 5C62.1485 5 64.1009 6.27889 64.1009 8.83613C64.1009 9.69769 63.8286 10.4298 63.2824 11.032C62.7365 11.6325 62.0072 12.0168 61.0899 12.1809C61.0775 12.1809 61.0709 12.1933 61.0709 12.2213C61.0709 12.2359 61.0832 12.2426 61.1105 12.2426C62.175 12.3916 63.0212 12.8028 63.6452 13.4733C64.2724 14.1438 64.5852 14.9443 64.5852 15.8737C64.5852 17.3923 64.0898 18.525 63.0997 19.2689C62.1097 20.0151 60.5585 20.387 58.4437 20.387C57.3809 20.387 56.2751 20.3327 55.1314 20.2229ZM76.1406 12.6935C76.1406 9.47866 75.0093 7.87262 72.7469 7.87262C70.485 7.87262 69.352 9.47866 69.352 12.6935C69.352 15.9073 70.485 17.5161 72.7469 17.5161C75.0093 17.5161 76.1406 15.9073 76.1406 12.6935ZM77.7968 18.3457C76.558 19.707 74.875 20.387 72.7469 20.387C70.6181 20.387 68.9347 19.707 67.6959 18.3457C66.4571 16.9856 65.8385 15.1006 65.8385 12.6935C65.8385 10.2859 66.4571 8.40255 67.6959 7.04128C68.9347 5.68005 70.6181 5 72.7469 5C74.875 5 76.558 5.68005 77.7968 7.04128C79.0356 8.40255 79.6562 10.2859 79.6562 12.6935C79.6562 15.1006 79.0356 16.9856 77.7968 18.3457ZM85.7577 17.2276C85.7308 17.2545 85.7275 17.2859 85.7486 17.3212C85.7672 17.3548 85.7969 17.3704 85.8391 17.3704H89.8588C89.9795 17.3704 90.0406 17.3161 90.0406 17.208V8.18012C90.0406 8.07092 89.9795 8.01544 89.8588 8.01544H87.5547C87.4345 8.01544 87.3738 8.07705 87.3738 8.19976C87.3738 10.771 87.2725 12.6112 87.0717 13.7198C86.868 14.8267 86.4304 15.9963 85.7577 17.2276ZM82.1607 23.4652C81.852 23.4652 81.5822 23.3493 81.3537 23.1162C81.1248 22.8843 81.0095 22.6109 81.0095 22.2967V18.2942C81.0095 18.0343 81.0983 17.8153 81.2723 17.6388C81.4471 17.4612 81.6632 17.3704 81.9181 17.3704C82.0405 17.3704 82.1148 17.3369 82.1421 17.2696C82.9351 16.0389 83.4602 14.8412 83.7173 13.6783C83.973 12.5159 84.1015 10.6281 84.1015 8.01544V6.37412C84.1015 6.05986 84.2123 5.78593 84.4346 5.55347C84.6565 5.31988 84.923 5.20392 85.2321 5.20392H92.2616C92.5728 5.20392 92.8414 5.31988 93.0715 5.55347C93.2996 5.78593 93.4141 6.05986 93.4141 6.37412V17.208C93.4141 17.3161 93.4674 17.3704 93.5756 17.3704H94.0409C94.3492 17.3704 94.6194 17.4881 94.8479 17.7211C95.0781 17.953 95.1921 18.2264 95.1921 18.5407V22.2967C95.1921 22.6109 95.0781 22.8843 94.8479 23.1162C94.6194 23.3493 94.3492 23.4652 94.0409 23.4652H93.1711C92.8616 23.4652 92.5914 23.3493 92.3633 23.1162C92.1348 22.8843 92.0191 22.6109 92.0191 22.2967V20.368C92.0191 20.2436 91.9654 20.182 91.8592 20.182H84.3441C84.2363 20.182 84.1825 20.2436 84.1825 20.368V22.2967C84.1825 22.6109 84.0685 22.8843 83.8375 23.1162C83.609 23.3493 83.34 23.4652 83.0305 23.4652H82.1607ZM101.232 14.1293C101.219 14.1707 101.228 14.2077 101.263 14.2435C101.296 14.2772 101.333 14.2934 101.373 14.2934H104.081C104.121 14.2934 104.158 14.2772 104.192 14.2435C104.225 14.2077 104.235 14.1707 104.222 14.1293L102.746 8.24119C102.746 8.22662 102.741 8.2205 102.726 8.2205C102.713 8.2205 102.708 8.22662 102.708 8.24119L101.232 14.1293ZM97.3131 20.182C97.0288 20.182 96.8036 20.066 96.6359 19.8341C96.4673 19.6005 96.4309 19.3479 96.5247 19.0746L100.606 6.31251C100.713 5.98369 100.906 5.71816 101.181 5.51201C101.456 5.30699 101.763 5.20392 102.101 5.20392H103.434C103.784 5.20392 104.1 5.30699 104.384 5.51201C104.666 5.71816 104.855 5.98369 104.949 6.31251L109.011 19.0746C109.103 19.3479 109.067 19.6005 108.9 19.8341C108.729 20.066 108.504 20.182 108.222 20.182H106.868C106.532 20.182 106.23 20.0761 105.959 19.8655C105.69 19.6526 105.515 19.3815 105.434 19.0544L104.949 17.105C104.936 16.9951 104.868 16.9408 104.747 16.9408H100.707C100.599 16.9408 100.532 16.9951 100.505 17.105L100.019 19.0544C99.9391 19.3815 99.7643 19.6526 99.4949 19.8655C99.2242 20.0761 98.9222 20.182 98.5858 20.182H97.3131ZM57.373 30.5677V35.0189C57.373 35.1289 57.4346 35.1965 57.5553 35.2242C58.0135 35.2787 58.3775 35.3064 58.6465 35.3064C59.6164 35.3064 60.3672 35.0777 60.8977 34.6203C61.4308 34.1607 61.696 33.5211 61.696 32.7011C61.696 31.073 60.6795 30.2597 58.6465 30.2597C58.3085 30.2597 57.9395 30.2933 57.5346 30.361C57.4268 30.3885 57.373 30.458 57.373 30.5677ZM55.152 42.7948C54.8409 42.7948 54.5723 42.6789 54.3425 42.4469C54.114 42.2135 54 41.9399 54 41.6255V29.09C54 28.7612 54.1078 28.4659 54.3235 28.2072C54.5376 27.9472 54.8078 27.8038 55.1314 27.777C56.2751 27.6671 57.3809 27.6117 58.4437 27.6117C62.7539 27.6117 64.9088 29.2396 64.9088 32.4963C64.9088 34.261 64.4071 35.596 63.4026 36.5063C62.4006 37.417 60.93 37.8715 58.9891 37.8715C58.4775 37.8715 57.9991 37.8501 57.5553 37.8098C57.4346 37.8098 57.373 37.8648 57.373 37.9739V41.6255C57.373 41.9399 57.259 42.2135 57.0305 42.4469C56.8024 42.6789 56.5322 42.7948 56.2227 42.7948H55.152ZM76.3629 35.3064C76.3629 32.0913 75.2316 30.4854 72.9692 30.4854C70.7069 30.4854 69.5743 32.0913 69.5743 35.3064C69.5743 38.5199 70.7069 40.129 72.9692 40.129C75.2316 40.129 76.3629 38.5199 76.3629 35.3064ZM78.0191 40.9587C76.7799 42.3197 75.0973 43 72.9692 43C70.8404 43 69.157 42.3197 67.9182 40.9587C66.6794 39.5985 66.06 37.7133 66.06 35.3064C66.06 32.8987 66.6794 31.0153 67.9182 29.6541C69.157 28.2917 70.8404 27.6117 72.9692 27.6117C75.0973 27.6117 76.7799 28.2917 78.0191 29.6541C79.2579 31.0153 79.8785 32.8987 79.8785 35.3064C79.8785 37.7133 79.2579 39.5985 78.0191 40.9587ZM88.2419 43C86.0337 43 84.297 42.3377 83.0305 41.0095C81.7648 39.6841 81.1314 37.783 81.1314 35.3064C81.1314 32.871 81.7442 30.9795 82.9706 29.6323C84.1953 28.2856 85.9052 27.6117 88.101 27.6117C89.1506 27.6117 90.0667 27.6879 90.8489 27.8374C91.1724 27.8929 91.434 28.0565 91.6356 28.331C91.8385 28.6032 91.9385 28.9108 91.9385 29.2541V29.9101C91.9385 30.1964 91.8244 30.4221 91.5955 30.5868C91.367 30.7509 91.1179 30.7997 90.8489 30.7302C90.0935 30.5252 89.313 30.4221 88.5055 30.4221C87.2936 30.4221 86.3457 30.8394 85.6676 31.6747C84.9866 32.5088 84.6453 33.7192 84.6453 35.3064C84.6453 36.866 85.0106 38.0759 85.7374 38.9379C86.4651 39.7999 87.4345 40.2301 88.6464 40.2301C89.4539 40.2301 90.2427 40.129 91.0104 39.9229C91.279 39.8545 91.5327 39.9032 91.767 40.0656C92.003 40.2301 92.1207 40.4555 92.1207 40.7438V41.3591C92.1207 41.7019 92.0158 42.0087 91.8079 42.2832C91.5988 42.5551 91.3323 42.7197 91.0104 42.7742C90.2154 42.9253 89.2923 43 88.2419 43ZM101.292 43C99.0837 43 97.3466 42.3377 96.0805 41.0095C94.8148 39.6841 94.1818 37.783 94.1818 35.3064C94.1818 32.871 94.7938 30.9795 96.0198 29.6323C97.2449 28.2856 98.9552 27.6117 101.151 27.6117C102.201 27.6117 103.116 27.6879 103.898 27.8374C104.222 27.8929 104.484 28.0565 104.686 28.331C104.888 28.6032 104.988 28.9108 104.988 29.2541V29.9101C104.988 30.1964 104.874 30.4221 104.646 30.5868C104.417 30.7509 104.168 30.7997 103.898 30.7302C103.144 30.5252 102.363 30.4221 101.555 30.4221C100.343 30.4221 99.3965 30.8394 98.7176 31.6747C98.0371 32.5088 97.6962 33.7192 97.6962 35.3064C97.6962 36.866 98.0606 38.0759 98.787 38.9379C99.5151 39.7999 100.485 40.2301 101.697 40.2301C102.504 40.2301 103.293 40.129 104.06 39.9229C104.329 39.8545 104.583 39.9032 104.817 40.0656C105.054 40.2301 105.171 40.4555 105.171 40.7438V41.3591C105.171 41.7019 105.066 42.0087 104.858 42.2832C104.649 42.5551 104.382 42.7197 104.06 42.7742C103.265 42.9253 102.342 43 101.292 43ZM109.292 42.7948C108.981 42.7948 108.714 42.6789 108.484 42.4469C108.255 42.2135 108.141 41.9399 108.141 41.6255V28.9869C108.141 28.6727 108.255 28.3982 108.484 28.1662C108.714 27.9327 108.981 27.8167 109.292 27.8167H110.283C110.592 27.8167 110.861 27.9327 111.09 28.1662C111.318 28.3982 111.433 28.6727 111.433 28.9869V36.9885C111.433 37.0032 111.441 37.0091 111.453 37.0091C111.468 37.0091 111.474 37.0032 111.474 36.9885L115.716 28.8429C116.066 28.1584 116.625 27.8167 117.393 27.8167H118.383C118.692 27.8167 118.962 27.9327 119.19 28.1662C119.421 28.3982 119.535 28.6727 119.535 28.9869V41.6255C119.535 41.9399 119.421 42.2135 119.19 42.4469C118.962 42.6789 118.692 42.7948 118.383 42.7948H117.393C117.084 42.7948 116.814 42.6789 116.585 42.4469C116.356 42.2135 116.241 41.9399 116.241 41.6255V33.6239C116.241 33.6097 116.235 33.6034 116.221 33.6034C116.208 33.6034 116.202 33.6097 116.202 33.6239L111.959 41.7687C111.609 42.4536 111.049 42.7948 110.283 42.7948H109.292ZM123.758 42.7948C123.447 42.7948 123.178 42.6789 122.949 42.4469C122.72 42.2135 122.605 41.9399 122.605 41.6255V28.9869C122.605 28.6727 122.72 28.3982 122.949 28.1662C123.178 27.9327 123.447 27.8167 123.758 27.8167H124.748C125.056 27.8167 125.327 27.9327 125.555 28.1662C125.783 28.3982 125.898 28.6727 125.898 28.9869V36.9885C125.898 37.0032 125.906 37.0091 125.918 37.0091C125.932 37.0091 125.939 37.0032 125.939 36.9885L130.182 28.8429C130.532 28.1584 131.091 27.8167 131.858 27.8167H132.848C133.157 27.8167 133.427 27.9327 133.656 28.1662C133.886 28.3982 134 28.6727 134 28.9869V41.6255C134 41.9399 133.886 42.2135 133.656 42.4469C133.427 42.6789 133.157 42.7948 132.848 42.7948H131.858C131.549 42.7948 131.28 42.6789 131.05 42.4469C130.82 42.2135 130.706 41.9399 130.706 41.6255V33.6239C130.706 33.6097 130.7 33.6034 130.686 33.6034C130.673 33.6034 130.667 33.6097 130.667 33.6239L126.425 41.7687C126.074 42.4536 125.513 42.7948 124.748 42.7948H123.758Z" fill="#38ACF5"/>
<path fill-rule="evenodd" clip-rule="evenodd" d="M38.3827 32.767L37.6229 33.3826C36.2365 32.8916 34.7704 32.3667 33.0683 31.7477C28.0684 29.9329 23.3318 28.6155 17.4302 28.9628C13.5285 29.1919 7.64529 32.2131 3.96952 33.9307C2.75837 34.5064 1.64295 35.0826 0.558151 35.6638C0.456291 34.7679 0.387275 33.8149 0.357776 32.7913L0.327163 31.7855C5.16622 31.331 9.52043 29.109 13.4968 27.0382C17.6584 24.866 21.0219 24.2017 23.6273 24.0476C27.6193 23.8129 31.9145 25.5314 35.9515 26.8421C38.145 27.5574 40.0129 28.2324 41.7357 28.8737C40.987 30.0136 39.9145 31.2896 38.3827 32.767ZM30.3188 38.7918C18.1566 47.0114 4.08863 52.3958 0.974482 38.2278C5.09383 36.501 9.54049 35.2912 12.7537 35.1023C16.4706 34.8828 20.1581 34.9962 25.1135 36.8132C27.0359 37.5211 28.7324 38.1687 30.3188 38.7918ZM0.101185 25.6754C0.0282713 23.4797 -0.0201525 21.2425 0.00823384 19.0339C0.838116 19.3375 1.70585 19.65 2.69325 20.0259C5.79292 21.2016 8.53695 21.8877 12.7186 21.6407C17.9668 21.3327 24.7105 15.4933 27.2541 14.2661C29.7265 13.0634 32.3492 12.2619 35.165 12.0233C36.2176 12.8506 37.2356 13.679 38.2079 14.494C40.8629 16.6668 42.3574 19.244 43 21.3657C39.3467 19.757 33.9633 17.9545 29.7638 18.2015C25.3979 18.4575 22.1307 19.9609 18.7822 21.708C15.7053 23.2959 10.5418 25.9426 5.99054 26.2097C3.98845 26.3274 1.97134 26.1039 0.101185 25.6754ZM0.506385 11.5797C0.585422 11.0083 0.675034 10.446 0.776893 9.89481C3.84707 -6.68399 19.6889 0.596054 32.2696 9.82477C26.9296 12.8433 21.7577 15.4771 18.431 15.6731C13.6921 15.9521 9.73639 15.2485 5.29812 13.4438C3.62944 12.7671 2.0181 12.1476 0.506385 11.5797Z" fill="#38ACF5"/>
</svg>
